<svg viewBox="0 0 3.891 3.891" width="49.129" height="49.129" preserveAspectRatio="none" version="1.1" id="svg544"><style id="style496"></style><g id="layer3" transform="translate(18.093 5.248)" opacity="1"><path id="path567" d="M-14.765-1.933a1.946 1.946 0 01-2.751.014 1.946 1.946 0 01-.015-2.752 1.946 1.946 0 012.751-.014 1.946 1.946 0 01.016 2.75l-1.384-1.367z" fill="#fff" fill-opacity="1" stroke="none" stroke-width=".003" stroke-miterlimit="4" stroke-dasharray="none" stroke-opacity="1"/></g><g id="layer2" transform="translate(18.093 5.248)"><g opacity="1" id="g512" transform="matrix(.03556 0 0 .03556 -17.51 -5.124)"><svg width="74.563" height="77.134" x="0" y="9.219" version="1.1" preserveAspectRatio="none" viewBox="1 0 29 30" id="svg510"><g id="g508" fill="#35c0ed" fill-opacity="1"><g stroke-width="1" fill-rule="evenodd" id="g506"><g transform="translate(-450 -90)" id="g504"><path d="M464 119v-10.586l.001-.004 3.997-3.995 4.003 4.002V119H470v-7h-4v7zm-1 0v-7h-.998v7zm-1.998 0v-7.583l-4.004-4.003-3.998 3.997V119h2v-6h4v6zM452 119v-8.003l1-1v-9L457.998 96H461v-1.003L465.998 90h6.001l5 5h.004v.003L478 96h-.997v10.003L479 108l1 1h-.997v10H480v1h-29v-1zm26.002 0v-10h-5v10zM456 119v-5h2v5zm11 0v-6h2v6zm5.003-16v-1H473l-.997-.997V101H472l-.999-.998V96h5.001v9.003L474 103zm-1 0v-1h-8.001v4.003l.996.996 4-3.999zm-7.712 4.706l-.706-.706h-4.587l4 4H463v-3.003zM462.001 96h4.998l3.003 3.002v-3.585l-4.004-4.003L462 95.411zm-8 12.997l2.997-2.997h5.004v-4.583l-4.004-4.003-3.998 3.997zM459 111v1h-4v-1zm-3-9h4v1h-4zm10.585-5h-7.587l4 4h7.587zM465 94h2v1h-2zm6.585-3h-4.587l4 4h4.587zm-2.587 13l4 4h4.587l-4-4zm1.002 5v1h-4v-1z" id="path502"/></g></g></g></svg></g></g></svg>